<?xml version="1.0" standalone="no"?>
<!DOCTYPE svg PUBLIC "-//W3C//DTD SVG 20010904//EN"
 "http://www.w3.org/TR/2001/REC-SVG-20010904/DTD/svg10.dtd">
<svg version="1.0" xmlns="http://www.w3.org/2000/svg"
 width="512.000000pt" height="512.000000pt" viewBox="0 0 512.000000 512.000000"
 preserveAspectRatio="xMidYMid meet">

<g transform="translate(0.000000,512.000000) scale(0.100000,-0.100000)"
fill="#000000" stroke="none">
<path d="M1028 4800 c-113 -24 -147 -35 -240 -81 -228 -111 -403 -310 -484
-546 -18 -54 -38 -127 -43 -163 -6 -37 -11 -233 -11 -452 l0 -388 -25 0 -26 0
3 -1087 3 -1088 27 -95 c97 -354 363 -616 721 -713 l82 -22 1490 -3 c1049 -2
1514 0 1570 8 393 54 703 320 819 700 14 47 30 126 36 175 6 59 7 457 3 1153
-5 876 -9 1062 -20 1062 -10 0 -13 -20 -13 -80 0 -79 0 -80 -25 -80 l-25 0 0
428 c0 378 -2 437 -19 517 -66 317 -275 573 -571 698 -47 20 -131 45 -187 56
-99 21 -126 21 -1540 20 -1354 0 -1443 -1 -1525 -19z m1132 -716 c90 -22 266
-108 383 -187 l98 -67 63 40 c92 58 239 125 341 155 120 36 285 38 386 6 279
-89 429 -403 389 -819 l-12 -127 34 -24 c18 -14 74 -65 123 -115 133 -134 195
-267 195 -420 0 -263 -186 -495 -535 -666 -152 -74 -235 -105 -394 -145 -103
-26 -103 -26 -159 -88 -79 -89 -217 -222 -285 -275 l-58 -46 43 -23 c119 -63
306 -99 427 -82 194 27 337 185 371 409 6 41 14 98 18 125 7 47 10 52 57 77
28 15 54 28 59 28 12 0 0 -191 -18 -277 -56 -266 -227 -445 -464 -483 -150
-24 -345 16 -529 109 -34 17 -67 31 -73 31 -5 0 -49 -22 -97 -50 -183 -105
-338 -153 -498 -153 -194 0 -335 69 -438 215 -90 128 -127 263 -132 488 l-4
155 -66 40 c-275 168 -425 383 -425 610 0 376 419 709 1045 831 l140 27 120
122 c66 67 153 151 193 186 l73 64 -94 63 c-173 114 -304 162 -445 162 -283 0
-432 -198 -458 -606 l-7 -110 -47 -27 c-26 -15 -53 -27 -59 -27 -16 0 -14 207
4 316 50 308 186 496 405 558 30 8 69 17 85 20 49 7 174 -3 245 -20z"/>
<path d="M3149 3919 c-96 -14 -233 -68 -366 -146 l-41 -24 156 -156 c116 -116
152 -158 139 -161 -9 -2 -49 1 -89 8 -71 11 -72 11 -166 98 -52 48 -107 97
-122 109 l-28 23 -89 -74 c-48 -41 -114 -100 -145 -132 l-57 -59 252 -1 c206
-1 276 -5 385 -22 243 -39 417 -89 603 -172 l107 -47 6 36 c3 20 6 82 6 137 0
416 -206 634 -551 583z"/>
<path d="M2440 3285 c-14 -2 -69 -7 -122 -10 l-98 -7 -63 -81 c-136 -174 -259
-378 -365 -604 l-52 -113 44 -87 c95 -190 204 -356 306 -470 38 -42 68 -79 66
-81 -8 -8 -182 29 -191 41 -5 7 -31 40 -56 72 -46 59 -162 232 -208 310 l-24
40 -19 -65 c-22 -74 -58 -243 -58 -270 0 -14 20 -26 78 -48 378 -146 861 -190
1310 -120 l73 11 84 112 c104 138 188 270 266 420 l60 113 -47 108 c-82 194
-206 410 -322 563 -54 71 -61 83 -41 78 13 -3 54 -11 92 -18 56 -10 71 -18 91
-43 51 -68 161 -256 227 -388 l68 -139 15 36 c23 54 84 247 96 301 6 27 13 57
16 67 5 14 -15 28 -108 71 -189 90 -410 151 -658 181 -114 14 -412 27 -460 20z
m155 -514 c123 -56 171 -200 107 -322 -69 -132 -255 -160 -362 -56 -149 145
-47 397 160 397 32 0 72 -8 95 -19z"/>
<path d="M1914 3210 c-297 -77 -517 -190 -669 -344 -220 -223 -216 -478 11
-700 54 -53 195 -156 213 -156 4 0 16 39 25 88 9 48 37 148 61 222 l44 134
-34 92 c-38 102 -66 197 -94 326 l-19 88 55 31 c30 17 57 29 59 26 3 -3 14
-49 25 -103 20 -104 28 -136 61 -227 l21 -59 67 129 c84 162 138 252 228 381
39 56 68 102 64 101 -4 0 -57 -13 -118 -29z"/>
<path d="M3770 2908 c-20 -85 -91 -295 -129 -382 l-38 -89 24 -76 c13 -42 34
-129 48 -195 13 -65 26 -120 28 -123 3 -2 40 23 84 56 286 215 329 508 111
746 -33 36 -72 74 -88 85 l-29 21 -11 -43z"/>
<path d="M3493 2221 c-36 -67 -147 -241 -196 -310 -21 -29 -36 -55 -34 -57 5
-6 184 57 260 91 l59 26 -7 52 c-7 57 -45 240 -50 246 -2 2 -16 -20 -32 -48z"/>
<path d="M1583 1684 c3 -71 12 -156 21 -189 98 -355 411 -450 806 -245 44 23
80 45 80 49 0 4 -19 21 -42 37 -64 45 -217 176 -268 229 l-45 47 40 -6 c22 -3
67 -8 100 -12 55 -6 66 -12 125 -63 36 -32 97 -80 137 -109 l72 -51 79 64 c44
35 117 100 163 145 75 72 81 80 54 75 -73 -13 -353 -21 -495 -14 -263 14 -478
52 -678 120 -65 22 -125 43 -136 46 -18 6 -19 0 -13 -123z"/>
</g>
</svg>
